<?xml version="1.0" encoding="UTF-8"?>
<!DOCTYPE svg PUBLIC "-//W3C//DTD SVG 1.1//EN" "http://www.w3.org/Graphics/SVG/1.1/DTD/svg11.dtd">
<!-- Creator: CorelDRAW 2018 (64 Bit) -->
<svg xmlns="http://www.w3.org/2000/svg" xml:space="preserve" width="67px" height="67px" version="1.1" style="shape-rendering:geometricPrecision; text-rendering:geometricPrecision; image-rendering:optimizeQuality; fill-rule:evenodd; clip-rule:evenodd"
viewBox="0 0 6700000 6700000"
 xmlns:xlink="http://www.w3.org/1999/xlink">
 <defs>
  <style type="text/css">
   <![CDATA[
    .fil1 {fill:#55CD6C}
    .fil0 {fill:#EDEDED}
    .fil2 {fill:#FEFEFE}
   ]]>
  </style>
 </defs>
 <g id="Camada_x0020_1">
  <metadata id="CorelCorpID_0Corel-Layer"/>
  <g id="whatsapp.svg">
   <path class="fil0" d="M95000 6605000l449000 -1627000c-292000,-505000 -449000,-1067000 -449000,-1650000 0,-1774000 1459000,-3233000 3244000,-3233000 1785000,0 3266000,1459000 3266000,3233000 0,1773000 -1481000,3277000 -3266000,3277000 -561000,0 -1100000,-179000 -1583000,-449000l-1661000 449000z"/>
   <path class="fil1" d="M1846000 5573000l101000 56000c415000,258000 898000,415000 1403000,415000 1470000,0 2694000,-1224000 2694000,-2716000 0,-1493000 -1224000,-2672000 -2705000,-2672000 -1482000,0 -2683000,1190000 -2683000,2672000 0,516000 146000,1021000 415000,1448000l68000 101000 -258000 942000 965000 -246000z"/>
   <path class="fil2" d="M2474000 1823000l-213000 -11000c-67000,0 -135000,23000 -179000,68000 -102000,89000 -270000,258000 -315000,482000 -78000,337000 45000,741000 337000,1145000 292000,404000 853000,1055000 1841000,1336000 314000,90000 561000,34000 763000,-90000 157000,-101000 258000,-258000 292000,-426000l34000 -158000c11000,-44000 -11000,-101000 -56000,-123000l-708000 -326000c-44000,-22000 -101000,-11000 -134000,34000l-281000 359000c-22000,23000 -56000,34000 -90000,23000 -190000,-68000 -830000,-337000 -1178000,-1011000 -12000,-33000 -12000,-67000 11000,-89000l269000 -303000c23000,-34000 34000,-79000 23000,-113000l-326000 -729000c-11000,-34000 -45000,-68000 -90000,-68000z"/>
   <g>
   </g>
   <g>
   </g>
   <g>
   </g>
   <g>
   </g>
   <g>
   </g>
   <g>
   </g>
   <g>
   </g>
   <g>
   </g>
   <g>
   </g>
   <g>
   </g>
   <g>
   </g>
   <g>
   </g>
   <g>
   </g>
   <g>
   </g>
   <g>
   </g>
  </g>
 </g>
</svg>
